<svg id="Group_549" data-name="Group 549" xmlns="http://www.w3.org/2000/svg" xmlns:xlink="http://www.w3.org/1999/xlink" width="430.686" height="406.632" viewBox="0 0 430.686 406.632">
  <defs>
    <clipPath id="clip-path">
      <rect id="Rectangle_152" data-name="Rectangle 152" width="430.686" height="406.632" fill="none"/>
    </clipPath>
  </defs>
  <g id="Group_548" data-name="Group 548" clip-path="url(#clip-path)">
    <path id="Path_602" data-name="Path 602" d="M215.279,406.632,152.2,297.593c-2.066,1.089-3.7,1.634-4.938,2.651-11.768,9.635-25.612,9.273-39.5,7.977-2.886-.269-4.057.29-5.454,2.573-3.884,6.35-9.533,9.26-17.182,8.836-15.424-.856-31.46-13.286-34.3-27.489a51.509,51.509,0,0,1,2.183-27.1c4.49-13,7.14-24.095,24.509-35.449-2.158.69-4.322,1.36-6.472,2.073C60.679,235.1,52.484,233.6,46.176,224.78c-5.933-8.3-10.094-17.854-15.162-26.784-2.08-3.666-3.9-7.786-6.883-10.568-5.9-5.49-9.171-11.182-6.248-19.4.647-1.821-.095-4.179-.358-6.269-.7-5.571-1.828-11.111-2.159-16.7-.423-7.165,3.167-11.886,9.954-14.4C32.475,128,39.527,125.07,46.6,122.206a27.72,27.72,0,0,0,3.281-1.929L0,33.809H6.137q42.99,0,85.981.026c2.8.005,5.265-.065,6.62-3.11,6.135-13.792,17.568-19.212,31.858-21.478C161.809,4.3,192.862-1.863,224.733.534c9.127.687,18.257,1.384,27.361,2.312a44.214,44.214,0,0,1,25.269,10.882c6.289,5.53,12.941,6.541,20.751,3.055a37.641,37.641,0,0,1,13.9-3.441c11.09-.306,18.357,6.176,22.979,15.593,1.91,3.892,4.17,5.013,8.395,4.98,27.159-.211,54.321-.1,81.482-.1h5.817c-1.175,2.172-1.963,3.714-2.827,5.213-16.8,29.127-33.55,58.283-50.5,87.321-1.773,3.038-1.376,5.178-.153,8.187a164.254,164.254,0,0,1,6.682,19.716c2.03,7.67-.344,14.16-7.009,18.773-5.191,3.592-10.763,6.7-15.627,10.687-14.681,12.017-30.373,22.642-40.222,40.026C287.144,283.543,252.467,342.9,218.08,402.424c-.717,1.243-1.589,2.4-2.8,4.208m-72.4-201.66,1.651-.239c.765,5.116,2.03,10.219,2.156,15.351.127,5.183,1.559,7.121,6.377,5.238,4.922-1.923,9.514-4.72,14.18-7.264,9.2-5.016,18.168-10.483,27.569-15.073,7.063-3.449,12.107-.964,15.165,6.314,3.626,8.631,1.574,16.728-2.837,24.344-3.58,6.18-8.31,11.757-11.384,18.152-4.6,9.564-11.635,15.836-21.71,18.319-5.7,1.4-10.483,3.09-12.054,9.439a2.681,2.681,0,0,1-1.644,1.758c-7.062.841-11.384,6.78-17.2,9.283-6.757,2.908-14.8,2.864-22.3,3.954-1.079.157-2.277-.512-3.42-.8a8.071,8.071,0,0,1,4.05-1.2c8.5-.856,16.637-1.805,22.743-9.387,2.227-2.766,7.4-3.067,11.077-4.8,1.478-.7,3.77-2.417,3.628-3.363-1.02-6.828,3.518-7.033,8.137-7.525,6.851-.73,12.991-2.767,16.868-9.147,3.622-5.961,7.471-11.783,11.165-17.7a30.045,30.045,0,0,0,1.6-3.954l-4.849,3.5c.555-2.7,2.044-4.676,3.107-6.859a152.8,152.8,0,0,0,7.092-15.863c.5-1.407-1.434-5.239-2.348-5.273-2.45-.089-6.021.524-7.215,2.219-2.524,3.585-4.1,7.939-5.567,12.15-5.3,15.167-15.925,24.635-30.432,31.069-13.653,6.057-26.752,13.385-39.943,20.438-2.435,1.3-5.228,3.625-5.976,6.056-1.787,5.806-2.453,11.958-3.658,18.429,12.884.875,26.02,3.58,37.046-6.277,5.471-4.892,11.817-7.737,18.679-10.113,19.544-6.768,36.6-16.843,45.953-36.585,1.364-2.878,3.618-5.335,5.46-7.987l1.087.59a29.493,29.493,0,0,1-1.38,5.113c-3.584,7.642-7.361,15.193-10.942,22.837-.546,1.165-.421,2.645-.607,3.979l1.628,1.246c-4.466,3.049-8.815,6.29-13.428,9.1-5.84,3.556-8.9,9.554-7.671,15.775l6.479-5.839c-2.5,14.256-.531,23.833,14.236,30.585-2.1-3.826-4.167-7.611-6.238-11.4l.463-.081,15.179,17.356c1.842-7.446,3.486-14.087,5.13-20.729l1.732-.2,16.425,23.023c3.68-9.946,9.037-18.793,16.893-25.978-2.725,4.91-6.118,9.439-8.645,14.409-2.443,4.8-3.994,10.062-5.937,15.12l1.639.913c4.14-5.152,8.98-9.891,12.3-15.525,17.164-29.11,33.942-58.448,50.838-87.716,1.007-1.744,1.865-3.575,3.261-6.271l-5.625,2.294a110.078,110.078,0,0,1-43.813,8.353c-8.643-.144-10.893-3.4-10.937-11.771-.035-6.529-.542-13.383-2.59-19.508-4.813-14.4-3.1-27.361,6.728-38.795,10.461-12.174,19.475-24.93,21.645-41.367a3.588,3.588,0,0,1,.538-1.393c3.2-5.059,1.522-9.53-1.676-13.79-1.288-1.717-2.689-3.349-4.469-5.553a29.666,29.666,0,0,1,4.706-.675c3.956.105,5.5-1.983,5.187-5.6-.915-10.476,1.013-21.35-5.291-31.094-1.212-1.874-.5-7.184,1.079-8.216,3.324-2.168,5.338,1.671,7.281,4.078a4.934,4.934,0,0,1,.271.42c11.438,17.511,14.088,36.452,9.085,57.389,0-6.589.3-12.428-.085-18.22-.381-5.714-1.458-11.381-2.229-17.068-.058,26.634-6.465,50.87-22.144,72.391-4.018,5.516-8.48,10.712-12.416,16.283-4.4,6.225-5.776,12.228-4.726,17.887,6.3-14.681,14.936-26.792,24.233-33.566-1.014,1.65-2.291,3.1-3.4,4.678-4.671,6.658-9.861,13.038-13.768,20.122-3.788,6.87-5.858,14.743-4.057,22.627,1.536,6.721,3.218,13.226,1.636,20.146-.731,3.194,1,5.045,4.036,4.709,5.881-.65,12.107-.78,17.477-2.917a211.658,211.658,0,0,0,30.548-14.684c7.876-4.717,14.734-11.188,21.82-17.146,2.653-2.229,4.677-5.207,6.988-7.843l.9.787-15.783,19.02c7.159-2.056,13.355-7.146,20.567-15.612a62.774,62.774,0,0,1,11.982-10.249c6.1-4.268,12.91-7.569,18.841-12.045,11.086-8.366,11.982-12.3,7.4-25.56-.542-1.57-1.269-3.074-1.873-4.624q-11.04-28.318-22.069-56.644c-.459-1.178-.935-2.35-1.4-3.524l-.868.294v10.7c-1.282-8.7-1.228-17.175-3.925-24.659C341.741,55.3,335.8,43.126,329.786,31.085c-5.9-11.825-15.481-15.308-27.472-9.9-7.274,3.281-13.9,7.992-20.84,12.07-1.246-8.918-6.329-15.661-14.482-19.9-3.631-1.887-7.669-3.66-11.663-4.057-12.871-1.278-25.8-2.426-38.721-2.505-5.379-.033-10.775,2.759-16.163,4.267-.05-.132-.1-.265-.148-.4L209.064,6.5l-.3-1.717C195.987,6.072,183.2,7.251,170.439,8.692c-6.931.783-13.812,2.007-20.715,3.042-10.659,1.6-22.285.914-28.556,12.912l-.847-1.079,5.063-7.043c-8.534.927-14.2,4.909-18.675,11.58-4.136,6.166-9.334,11.611-13.8,17.571-3.048,4.068-6.433,8.163-8.272,12.8-3.629,9.149-.821,12.858,9,13.932,1.89.206,3.672,1.411,5.5,2.155l-.5.943-6.817,1.367c8.066,5.8-2.276,8.938-.787,13.827l6.882-4.556c-.682,2.742-2.243,4.464-3.338,6.445-4.123,7.46-9.774,12.77-18.351,14.862a12.534,12.534,0,0,0-6.363,4.307,51.007,51.007,0,0,1-29.231,18.757c-2.94.71-5.8,1.753-7.712,2.341,10.19,1,21.124,1.423,31.765,3.416,4.668.875,7.521.163,11.016-2.488,5.366-4.071,11.18-7.55,16.8-11.279l.484.769c-6.812,5.739-13.624,11.478-20.556,17.32,8.755,10.81,2.372,19.655-1.522,28.756l3.333.732c-2.629,8.3-13.577,11.918-11.31,22.571-1.032-.36-1.777-.658-2.543-.882-5.092-1.488-10.2-3.727-15.134.5-.423.363-1.27.276-1.926.317-6.44.4-7.738,2.175-5.107,8.352,2.338,5.49,4.813,11.076,8.237,15.9,3.115,4.392,7.6,7.8,14.19,7.865L48.391,200.963c2.037.963,3.011,2.5,4.11,3.943,6,7.886,13.432,13.917,23.082,16.646,7.876,2.227,16.447,2.376,22.913,8.544,1.068,1.02,3.1,1.382,4.7,1.428,6.442.185,12.95.692,19.324.029,9.933-1.034,16.645-7.5,18.92-17.234.715-3.06.971-6.228,1.437-9.347m-48.4,28.693c-12.01-.154-21.5,3.069-26.7,12.673C63.1,255,58.9,264.35,56.807,273.906c-4.437,20.273,2.866,32.322,21.366,38.518,11.792,3.949,18.121,1.318,22.139-10.466,2.444-7.168,3.5-14.82,5.024-22.287,2.927-14.342,8.248-27.062,22.254-34.2a55.764,55.764,0,0,0,5.367-3.723c-10.133-1.653-18.554-1.454-27.082,4.953,1.22-3.111,1.966-5.014,2.636-6.72-12.942-3.112-21.54,1.522-25.571,14.412.723-8.293,5.127-14.37,11.543-20.732M59.126,115.4c2.431-2.792,4.016-5.2,6.152-6.925,3.14-2.537,6.389-5.488,10.1-6.656,7.6-2.393,9.1-4.6,5.382-11.666a36.181,36.181,0,0,1-3.739-21.714c.971-8.475,2.782-16.54,8.587-23.77H18.28L59.126,115.4M344,44.706l25.947,73.781,42.625-73.781ZM215.413,386.12c4.157-7.182,7.659-13.4,11.329-19.526,3.932-6.558,7.355-12.611,6.03-21.293-1.452-9.521-6.165-16.4-11.357-23.485l-1.406.255c-.316,7.162-.631,14.323-.953,21.648-5.276-3.9-10.212-7.733-15.339-11.288-3.545-2.459-7.352-4.54-11.043-6.787-9.345-5.69-16.57-13.183-20.761-23.5-1.508-3.713-3.287-7.726-9.247-7.391l52.747,91.366M112.284,274.45c13.093-6.758,25.651-13.569,38.5-19.766,9.546-4.6,18.568-9.768,25.566-17.853,1.939-2.241,3.27-5.007,4.88-7.532l-1.134-1.162c-2.082.807-4.185,1.564-6.243,2.428-12.836,5.385-25.478,11.3-38.544,16.055-13.514,4.915-19.026,15.534-23.029,27.83M66.431,170.562c-.8.058-1.613.072-2.41.182-6.508.9-7.914.087-10.657-6.034a27.216,27.216,0,0,0-2.874-5.73c-2.1-2.692-4.846-3.631-7.587-.768-3.444,3.6-1.872,13.251,2.783,14.777,7.024,2.3,14.225,2.767,20.745-2.427" fill="#1a1818"/>
    <path id="Path_603" data-name="Path 603" d="M150.128,117.944C147,107.86,143.88,97.777,140.589,87.152a23.218,23.218,0,0,1,3.1.308c4.34,1.1,6.158-.809,7.445-4.923a18.472,18.472,0,0,1,5.425-8.3c3.915-3.268,3.159-6.92,2.459-10.887-.6-3.414-1.339-6.824-1.616-10.268a7.716,7.716,0,0,1,1.234-4.7c1.038-1.48,2.817-2.441,4.275-3.626.841,1.687,2,3.3,2.427,5.084.369,1.55-.043,3.3-.2,4.958-.655,6.862,2.264,9.477,9.191,8.22,1.448-.263,2.911-.441,4.8-.722l-2.151,6.179c12.534.828,20.836,8.327,28.945,16.069,5.506,5.257,4.867,7.9-2.176,10.086a9.322,9.322,0,0,0-2.781,1.073c-10.9,8.024-23.461,6.088-35.657,5.734-4.453-.129-9.123-1.18-9.93-7.114-.1-.713-1.1-1.3-1.69-1.949-.609.816-1.535,1.559-1.744,2.468-.249,1.077.2,2.3.207,3.455.028,6.538.013,13.077.013,19.615l-2.038.033M163.48,77.061c-5.485,3.468-4.2,14.588,2.433,17.483a27,27,0,0,0,24.505-.879c3.3-1.789,6.057-4.469,4.067-8.922-1.9-4.264-7.926-7.082-11.862-5.671-1.87.67-4.474.693-5.514,1.993-2.434,3.043-.525,6.495,3.957,8.068-3.213,4.6-7.143,5.4-12.987,2.645-5.462-2.577-6.67-6.444-4.6-14.717" fill="#1a1818"/>
    <path id="Path_604" data-name="Path 604" d="M205.238,160.775c-16.568-6.585-34.64-10.29-46.546-25.438a3.028,3.028,0,0,1,.485-.946c.64-.71,1.373-1.336,2.707-2.6,10.712,15.567,28.368,20.249,43.354,28.987" fill="#1a1818"/>
    <path id="Path_605" data-name="Path 605" d="M231.283,108.83l-4.724-.593c1.9-16.332,8.541-32.216,2.264-48.681,8.258,15.921,3.5,32.368,2.46,49.274" fill="#1a1818"/>
  </g>
</svg>
