<svg id="Group_553" data-name="Group 553" xmlns="http://www.w3.org/2000/svg" xmlns:xlink="http://www.w3.org/1999/xlink" width="953.449" height="622.401" viewBox="0 0 953.449 622.401">
  <defs>
    <clipPath id="clip-path">
      <rect id="Rectangle_154" data-name="Rectangle 154" width="953.449" height="622.401" fill="none"/>
    </clipPath>
  </defs>
  <g id="Group_552" data-name="Group 552" clip-path="url(#clip-path)">
    <path id="Path_731" data-name="Path 731" d="M743.14,442.573c.011,19.75.545,39.518-.173,59.241a174.059,174.059,0,0,1-4.6,32.489c-5.213,22.649-26.063,31.847-43,33.317-10.982.953-21.513-1.317-31.73-5.172-9.653-3.641-14.821-11.846-20.233-19.9-16.16-24.057-15.917-50.1-7.408-76.071,7.62-23.262,16.945-46.048,26.838-68.462,10.777-24.418,22.953-48.224,34.774-72.172a53.347,53.347,0,0,0,5.555-25.69c-5.28,4.99-10.654,10.626-16.6,15.579-18.919,15.765-48.705,2.237-53.546-16.529-1.364-5.287-4.859-6.758-10.069-6.569-11.082.4-17.567,6.7-22.131,15.968a41.657,41.657,0,0,1-19.35,19.263c-18.823,9.444-43.667,1.4-53.392-17.5-3.66-7.11-7.026-14.3-7.052-22.588a4.311,4.311,0,0,0-1.854-3.055c-.494-.315-2.12.539-2.834,1.262-27.1,27.425-59.96,45.925-94.748,61.561-17.079,7.677-34.122,15.225-52.4,19.775-13.325,3.317-24.865.539-33.209-10.065-6.7-8.516-11.742-18.349-17.35-27.7-1.995-3.328-3.49-6.955-5.782-11.6-2.679,10.71-9.17,16.464-16.852,21.535A220.657,220.657,0,0,1,204.542,373.9c-32.134,4.624-67.133-14.564-80.25-44.615-12.915-29.587-11.424-59.519-1.388-89.449,9.583-28.582,28.837-49.72,52.779-67.035,29.727-21.5,62.426-36.41,98.651-42.79a405.234,405.234,0,0,1,100.474-4.728c29.562,2.177,58.069,8.561,85.357,20.122,19.961,8.457,39.419,17.706,53.684,35.038A103.048,103.048,0,0,1,534.287,221.8c4.971-3.517,9.83-6.664,14.359-10.231a27.715,27.715,0,0,1,21.84-5.961c9.182,1.311,18.4,2.639,27.422,4.754,16.76,3.931,23.441,16.63,26.3,32.106,2,10.821-2.291,20.519-5.889,30.324a22.848,22.848,0,0,0-.678,4.976c1.706-.09,3.532.183,5.1-.336,5.59-1.852,7.7-6.4,8.448-11.8,1.718-12.339,3.2-24.746,8.846-36.106,6.509-13.087,16.259-22.123,31.239-24.347,10.1-1.5,18.21,2.583,25.054,9.54,2.784,2.83,5.633,5.869,7.413,9.345,2.419,4.72,5.852,4.987,10.256,4.259a72.365,72.365,0,0,1,10.4-.949c6.4-.118,6.963.448,6.9,6.688-.188,17.459-.458,34.92-.687,51.815,5.851-5.961,11.893-13.02,18.845-19.022,17.445-15.063,36.46-27.834,58.251-35.836,16.3-5.987,32.678-5.724,48.452,1.906,16.056,7.767,22.845,22.2,27.1,38.544,5.148,19.764-1.869,36.843-10.88,54.129-16.463-11.582-32.709-23.008-49.1-34.542,7.169-10.3,7.941-20.544.13-30.211-8.439-10.444-19.591-14.928-32.816-11.175-23.256,6.6-40.94,20.915-53.358,41.414-5.488,9.058-4.573,19.567-3.574,29.738,1.821,18.539,3.735,37.07,5.61,55.6-.291,1-.581,1.995-.826,2.836-2.9-1.33-5.762-3.9-7.9-3.4-9,2.11-17.372.119-25.823-2.311a5.367,5.367,0,0,0-1.487,0c.43-11.129.86-22.258,1.326-34.294-4.595,6.472-9.933,12.006-12.962,18.6-13.405,29.184-28.593,57.628-38.088,88.5-5.927,19.268-11.268,38.626-8.317,59.138,2.548,17.7,9.828,32.567,26.735,40.551,15.826,7.474,25.789,4.883,27.731-13.545,1.011-9.583,1.213-19.252,1.779-28.882q.038-.546.074-1.092.147-12.081.292-24.162c2.847-1.483,6.218-2.416,8.45-4.544,9.693-9.239,19.029-18.851,28.566-28.256a29.671,29.671,0,0,1,4.325-2.993M310.654,314.85c-1.026-3.354-1.742-5.668-2.439-7.984-1.715-5.7-3.9-11.31-5.048-17.124-5.071-25.741-10.909-51.4-10.644-77.87.151-15.115.182-30.239.767-45.341.317-8.2,3.454-12.091,11.76-12.911,8.658-.856,17.507.065,26.255.53.953.051,2.384,2.135,2.592,3.435,1.574,9.838,2.837,19.725,4.313,29.58,3.958,26.43,6.829,53.092,12.3,79.206,5.119,24.427,12.814,48.332,19.8,72.344,2.89,9.939,6.071,11.142,15.96,8.109.476-.146.976-.216,1.448-.373,31.65-10.528,60.921-25.84,88.591-44.3a119.244,119.244,0,0,0,34.97-35.806c12.9-20.48,9.332-41.661-1.054-61.527-9.463-18.1-26.1-29.474-43.751-38.909-20.829-11.133-43.237-17.655-66.489-21.41-16.388-2.646-32.708-5.912-49.187-7.754-18.821-2.1-37.521.915-56.088,3.917-29.084,4.7-56.812,13.208-81.872,29.317-21.767,13.994-37.552,33.365-48.775,56.141-7.976,16.186-12.038,33.987-13.745,52.027-.948,10.013-2.545,20.638-.3,30.149,5.772,24.428,22.729,38.828,46.91,44.2,18.349,4.079,35.578-.535,51.9-9.135,11.311-5.961,21.687-12.449,25.861-25.98,2.183-7.08,9.028-9.163,16.484-7.062,4.146,1.168,8.239,2.539,12.407,3.618a61.737,61.737,0,0,0,7.069.916m391.992-59.478c-.779-5.873-.934-11.919-2.489-17.58-2.075-7.555-9.44-13.024-16.06-12.789-7.751.276-11.359,5.795-13.416,12.156a135.334,135.334,0,0,0-5.018,20.7c-1.828,11.716-1.852,23.51,1.482,35.044,1.8,6.242,6.108,8.943,12.065,6.688a30.861,30.861,0,0,0,11.814-7.616c9.256-10.3,12.252-22.849,11.622-36.6m-89.578-12.885c.192-9.815-1.868-15.034-7.337-19.576-6.591-5.475-15.363-3.307-18.044,4.827-4,12.142-4.412,24.422.49,36.46a19.972,19.972,0,0,0,4.739,6.863c4.772,4.453,10.192,3.392,13.036-2.41,4.185-8.538,7.491-17.352,7.116-26.164m-54.036,34.97c.151,14.818,2.186,24.592,7.7,33.483,1.834,2.958,4.068,4.443,7.362,2.37,7.119-4.479,13.059-10.146,16.986-17.689,1.906-3.66,1.541-6.53-2.724-8.467a27.108,27.108,0,0,1-16.117-20.193c-1.494-7.465-2.31-15.061-3.591-22.572-.183-1.074-1.292-1.992-1.972-2.981-.812.889-2.185,1.683-2.351,2.679-2.092,12.569-4.01,25.168-5.288,33.37" fill="#171717"/>
    <path id="Path_732" data-name="Path 732" d="M585.9,466.82c-.515,3.448-.748,6.968-1.6,10.332-2.56,10.157-8.659,14.685-19.115,14.291-4.15-.157-8.286-.687-12.427-1.064-7.107-.646-12.559,2.229-16.8,7.792-6.246,8.2-13.614,14.89-23.664,18.235-11.183,3.721-21.461,2.419-30.144-5.742-8.624-8.107-9.765-18.155-5.641-28.856,2.622-6.8,6.27-13.24,8.488-20.153,1.9-5.926,2.609-12.268,3.505-18.476.852-5.906,1.024-11.911,1.915-17.81,2.858-18.944,22.627-21.407,34.032-12.443,6.766,5.318,12.713,11.713,18.811,17.84,8.264,8.3,17.53,14.491,29.291,16.913,9.121,1.879,13.037,8.223,13.341,19.141" fill="#161616"/>
    <path id="Path_733" data-name="Path 733" d="M740,387.63q1.16,15.862,2.321,31.725l.276,2.223q0,.922-.008,1.845c-2.577,1.3-5.6,2.125-7.646,4.005-5.986,5.494-11.291,11.747-17.417,17.065-6.054,5.254-6.865,11.589-5.952,18.809.162,1.288-.03,3.207-.853,3.927-2.686,2.35-5.74,4.281-8.652,6.374q.133-17.488.266-34.975c1.653-.049,3.307-.068,4.958-.153,9.631-.5,17.206-7.043,18.735-16.167,1.318-7.868-3.511-16.489-11.874-19.586-3.559-1.318-7.769-.879-11.684-1.239q.057-4.937.112-9.874l.438-12.259a.662.662,0,0,1,.122-.777c3.124.718,6.218,1.657,9.381,2.094,3.587.5,7.4,1.306,10.819.6,4.541-.943,8.328-1.414,11.676,2.551,1.318,1.561,3.3,2.561,4.982,3.817" fill="#161616"/>
    <path id="Path_734" data-name="Path 734" d="M494.7,396.5c-.009,11.061-3.618,16.767-9.487,17.9-7.5,1.441-16.344-2.8-17.692-10.911a171.469,171.469,0,0,1-1.749-34.93c.272-6.672,6.713-8.5,12.114-3.88A47.373,47.373,0,0,1,494.7,396.5" fill="#171717"/>
    <path id="Path_735" data-name="Path 735" d="M479.731,451.847c-.929,4.477-1.163,9.255-2.939,13.367-3.219,7.447-10.24,8.477-16.071,2.83a24.537,24.537,0,0,1-7.413-19.866c.663-9.2,2.456-18.336,4.24-27.406.447-2.274,2.583-5.737,4.2-5.888,2.2-.205,5.314,1.716,6.86,3.661,6.5,8.177,8.522,18.123,10,28.175.241,1.637.223,3.314.325,4.972l.793.155" fill="#171717"/>
    <path id="Path_736" data-name="Path 736" d="M575.94,423.309c.185,4.187-1.037,7.634-5.221,9.287-5.815,2.3-12.067,2.611-16.023-2.491a71.541,71.541,0,0,1-10.2-18.513c-2.592-6.907-3.883-14.365-5.142-21.686-.735-4.279,2-6.257,5.687-4.255,12.959,7.037,24.095,16,29.626,30.343a17.232,17.232,0,0,1,.938,3.341c.218,1.307.234,2.648.338,3.974" fill="#171717"/>
    <path id="Path_737" data-name="Path 737" d="M527.768,388.327c.231,6.894-2.8,10.358-7.5,12.542-4.285,1.991-8.323.859-11.395-2.331a41.019,41.019,0,0,1-7.029-9.521,62.347,62.347,0,0,1-7.282-30.567c.165-5.363,3.667-7.415,7.87-4.133,10.249,8,19.382,17.137,24.41,29.517a18.741,18.741,0,0,1,.925,4.493" fill="#171717"/>
    <path id="Path_738" data-name="Path 738" d="M482.7,556.046c.851.711,3.117,1.779,4.1,3.557,6.493,11.749,12.719,23.646,19.006,35.509.777,1.466,1.3,3.07,2.1,4.518,1.671,3.006,1.137,6.03-1.708,7.253-2.171.933-6.23,1.084-7.592-.277-11.892-11.871-22.06-24.905-24.212-42.4-.6-4.906,2.314-8.293,8.3-8.163" fill="#8e6944"/>
    <path id="Path_739" data-name="Path 739" d="M678.113,173.349c-1.334-1.343-3.3-2.428-3.445-3.712a5.492,5.492,0,0,1,2.347-4.268c9.224-5.6,18.526-11.079,27.967-16.3,5.948-3.29,12.173-6.08,18.286-9.071,1.49-.729,3.159-2.115,4.513-1.878,2.513.442,5.336,1.384,7.027,3.1.668.68-.72,5.03-2.236,5.944-11.044,6.663-22.153,13.284-33.67,19.067-6.3,3.161-13.425,4.663-20.789,7.117" fill="#8e6a45"/>
    <path id="Path_740" data-name="Path 740" d="M926.754,243.4c-.965-.583-3.274-1.271-4.466-2.818-6.143-7.978-12.241-16.014-17.861-24.362a83.111,83.111,0,0,1-7.405-14.59c-.636-1.53-.112-4.768.994-5.471,1.256-.8,4.522-.345,5.6.8,7.369,7.837,14.658,15.785,21.417,24.146,3.389,4.194,5.928,9.181,8.263,14.09,2.025,4.256-.8,8.115-6.541,8.2" fill="#8e6a45"/>
    <path id="Path_741" data-name="Path 741" d="M702.068,473.6c2.911-2.092,5.965-4.023,8.651-6.374.823-.72,1.015-2.638.853-3.927-.913-7.22-.1-13.555,5.952-18.809,6.126-5.317,11.432-11.571,17.417-17.064,2.049-1.88,5.069-2.7,7.646-4.006q.276,9.576.552,19.151a29.666,29.666,0,0,0-4.324,2.993c-9.536,9.4-18.872,19.017-28.566,28.256-2.232,2.128-5.6,3.061-8.45,4.543q.133-2.382.269-4.763" fill="#171717"/>
    <path id="Path_742" data-name="Path 742" d="M901.433,363.33c3.145-3.247,6.044-6.785,9.48-9.687,10.665-9.007,21.531-17.776,32.325-26.629,2.458-2.016,4.974-4.611,8.242-1.6,3.421,3.152,1.822,6.433-.551,9.277a111.439,111.439,0,0,1-37.869,29.484c-3.066,1.465-7.042,1.026-10.6,1.464q-.513-1.154-1.028-2.308" fill="#8e6944"/>
    <path id="Path_743" data-name="Path 743" d="M754.03,579.618c1.137,1.069,3.442,2.229,3.584,3.612.2,1.928-.616,4.9-2.054,5.892a132.812,132.812,0,0,1-17.087,10.238c-10.9,5.331-22,10.244-33.136,15.057-1.386.6-3.492-.468-5.265-.764.677-1.63.885-4.049,2.1-4.772,15.685-9.333,31.506-18.436,47.32-27.551a34.527,34.527,0,0,1,4.537-1.712" fill="#8e6a47"/>
    <path id="Path_744" data-name="Path 744" d="M304.039,509.958c3.477.274,6.963.47,10.43.842,4.28.461,5.95,3.53,6.14,7.256.184,3.628-1.938,5.52-5.638,6.328-12.17,2.658-24.291,4.106-36.326-.354-1.743-.646-3.1-2.336-4.635-3.543,1.436-1.8,2.548-4.659,4.362-5.211,8.324-2.532,16.844-4.418,25.293-6.536q.188.609.374,1.218" fill="#8e6944"/>
    <path id="Path_745" data-name="Path 745" d="M147.855,62.523c1.137-12.41,2.182-24.829,3.524-37.217.17-1.572,1.889-2.976,2.891-4.458.989,1.48,2.684,2.881,2.859,4.452,2.2,19.74,1.645,39.51-.175,59.236-.165,1.787-2.84,3.342-4.349,5-1.295-1.67-3.608-3.282-3.708-5.022-.42-7.294-.177-14.626-.177-21.943l-.865-.053" fill="#8f6b48"/>
    <path id="Path_746" data-name="Path 746" d="M414.483,82.846c-1.163-.582-2.774-.876-3.223-1.76a4.208,4.208,0,0,1,.6-3.488c1.373-2.052,2.8-4.3,4.761-5.69,10-7.121,20.165-14.018,30.3-20.947,2.939-2.008,5.8-1.648,7.886,1.211,2.227,3.053.389,5.435-2.077,7.166-9.235,6.482-18.459,12.99-27.907,19.15-3,1.955-6.682,2.855-10.343,4.358" fill="#8e6b47"/>
    <path id="Path_747" data-name="Path 747" d="M781.026,90.052c.1,4.32-3.132,6.266-6.489,4.078-6.659-4.34-13.082-9.053-19.515-13.73-5.768-4.195-11.435-8.529-17.115-12.844-1.887-1.434-4.9-2.545-3.09-5.752,1.727-3.052,4.7-2.451,7-1.029q15.369,9.525,30.453,19.5c2.58,1.716,4.643,4.256,6.78,6.569a16.525,16.525,0,0,1,1.977,3.206" fill="#8e6b47"/>
    <path id="Path_748" data-name="Path 748" d="M919.042,441.452c-.81,3.243-2.081,5.545-5.276,4.269-15.754-6.291-30.465-14.222-41.038-28.055-.947-1.239-.6-3.47-.847-5.24,1.84.079,4.1-.507,5.453.345,10.689,6.718,21.2,13.716,31.779,20.614,2.367,1.543,4.877,2.893,7.111,4.6a17.616,17.616,0,0,1,2.818,3.463" fill="#8e6a47"/>
    <path id="Path_749" data-name="Path 749" d="M197.671,501.261c-6.079-.042-7.139-1.49-5.7-5.6a8.026,8.026,0,0,1,1.811-3.478c7.556-6.386,15.037-12.9,23.014-18.722,1.715-1.253,6.784-.893,7.762.5,1.582,2.26,2.539,7.15,1.167,8.918-7.533,9.71-18.518,14.406-28.053,18.379" fill="#8e6a45"/>
    <path id="Path_750" data-name="Path 750" d="M43.139,217.029c.559-.926,1.042-2.682,1.87-2.863,1.1-.241,3.106.381,3.614,1.268,4.688,8.183,9.373,16.387,13.563,24.831a73.45,73.45,0,0,1,5.4,14.972c.436,1.769-.937,4.883-2.474,5.938-1.118.768-4.978-.2-5.714-1.484-7.564-13.194-12.669-27.379-16.254-42.662" fill="#8e6a45"/>
    <path id="Path_751" data-name="Path 751" d="M6.751,319.768c12.11,3.115,23.01,6.918,32.438,13.974,1.226.918,2.058,4.712,1.34,5.422-1.889,1.869-5.431,4.464-7.082,3.782C23.412,338.8,13.621,334.019,4.018,328.94c-1.566-.828-2.67-4.338-2.327-6.321.22-1.276,3.476-2.027,5.06-2.851" fill="#8e6a45"/>
    <path id="Path_752" data-name="Path 752" d="M85.547,183.906c1.128-2.15,1.656-4.018,2.838-5.265,6.367-6.713,12.748-13.429,19.465-19.783a15.3,15.3,0,0,1,7.493-3.4c3.756-.689,5.626,1.772,4.493,5.443a11.816,11.816,0,0,1-2.539,4.772c-7.106,7.169-14.244,14.318-21.7,21.116-1.483,1.353-4.506,1.813-6.588,1.431-1.357-.249-2.3-2.764-3.464-4.315" fill="#8e6b47"/>
    <path id="Path_753" data-name="Path 753" d="M245.218,68.242c.689.729,2.883,2.035,2.827,3.236-.079,1.681-1.49,4.247-2.929,4.759-7.968,2.838-16.061,5.369-24.219,7.616s-16.4,4.166-24.674,5.9c-1.43.3-3.207-1.058-4.824-1.65.891-1.37,1.5-3.581,2.716-3.985,15.907-5.3,31.9-10.343,47.874-15.431a27.036,27.036,0,0,1,3.229-.442" fill="#8e6b47"/>
    <path id="Path_754" data-name="Path 754" d="M778.256,475.437c1.165.553,3.044,1.038,4.4,2.156,9.47,7.8,18.9,15.646,28.15,23.7a7.4,7.4,0,0,1,2.088,5.246,4.219,4.219,0,0,1-6.988,3.135c-9.928-9-19.691-18.208-29.08-27.766-3.088-3.143-2.1-6.337,1.428-6.473" fill="#8e6a47"/>
    <path id="Path_755" data-name="Path 755" d="M6.166,461.609c8.21,1.233,16.945,4.292,23.691,11.122,1.637,1.658,2.323,5.525,1.664,7.877-.938,3.348-4.43,4.4-7.831,3.357A40.915,40.915,0,0,1,1.28,467.639c-2.678-3.925-1.2-6.054,4.886-6.03" fill="#8e6a45"/>
    <path id="Path_756" data-name="Path 756" d="M642.782,586.1a23.9,23.9,0,0,1-2.549,3.011Q621.8,604.749,603.287,620.3c-.889.749-1.8,1.8-2.832,1.973a28.668,28.668,0,0,1-5.4-.049c.353-1.755.093-4.2,1.161-5.151q9.277-8.3,19.107-15.98c7.209-5.613,14.642-10.943,22.077-16.256a7.87,7.87,0,0,1,4.03-.944c.361-.019.788,1.248,1.349,2.206" fill="#8e6b49"/>
    <path id="Path_757" data-name="Path 757" d="M113.827,486.437c4.5.355,9.642.485,14.693,1.236,4.964.738,7.454,3.732,6.82,7.537-.738,4.43-4.263,4.866-7.635,4.389-9.633-1.363-19.249-2.908-28.794-4.778-1.65-.323-2.92-2.583-4.365-3.948,1.6-1.167,3.073-3.078,4.812-3.356,4.544-.727,9.2-.74,14.469-1.08" fill="#8e6b47"/>
    <path id="Path_758" data-name="Path 758" d="M887.044,509.042c-1.641,9.143-3.181,18.308-5.047,27.405-.246,1.2-2.158,2.051-3.3,3.065-.872-1.055-2.349-2.02-2.521-3.179-1.669-11.209-3.155-22.451-.791-33.761.272-1.3.291-2.968,1.11-3.767,1.311-1.279,3.248-2.786,4.819-2.681a5.753,5.753,0,0,1,4.125,3.374c.858,2.974.72,6.236.993,9.379l.61.165" fill="#8e6a45"/>
    <path id="Path_759" data-name="Path 759" d="M826.215,562.492c-.628.818-1.577,2.824-3.152,3.971-7.895,5.751-15.84,11.455-24.056,16.728-1.579,1.014-4.447.021-6.72-.046.411-1.923.243-4.292,1.327-5.7,6.676-8.64,14.8-15.622,24.88-20.09,4.736-2.1,7.732-.542,7.721,5.132" fill="#8f6b48"/>
    <path id="Path_760" data-name="Path 760" d="M371.731,576.507c2.766-17.381,9.18-32.238,20.382-44.81,1.155-1.3,4.848-1.564,6.585-.715,1.355.662,2.5,4.081,2.025,5.795-4.425,15.831-12.281,30.026-21.8,43.315-.882,1.232-2.988,1.586-4.526,2.348l-2.664-5.933M378,571.754c2.072-1.494,4.182-2.246,4.972-3.71,5.131-9.508,10.047-19.135,14.83-28.824.668-1.353.457-3.295.2-4.889a3.121,3.121,0,0,0-1.964-2.147,3.327,3.327,0,0,0-2.73,1.286c-4.054,6.609-8.242,13.163-11.8,20.041-2.692,5.21-6.254,10.491-3.508,18.243" fill="#8b6e51"/>
    <path id="Path_761" data-name="Path 761" d="M805,174.977c2.777-9.686,5.256-18.435,7.807-27.162a37.246,37.246,0,0,1,2.524-6.993c.558-1.056,2.33-2.287,3.274-2.092a3.924,3.924,0,0,1,2.188,3.187q-2.151,17.022-4.8,33.98c-.5,3.171-2.91,5.377-6.034,4.32-1.937-.656-3.2-3.289-4.958-5.24" fill="#8e6a47"/>
    <path id="Path_762" data-name="Path 762" d="M530.522,115.16a26.894,26.894,0,0,1,3.671,1.336c10.158,5.619,20.326,11.221,30.4,16.995,2.248,1.289,5.178,3.3,2.774,6.167-.974,1.163-4.794,1.29-6.415.343-10.443-6.1-20.667-12.584-30.858-19.106a5.186,5.186,0,0,1-1.7-3.637c-.05-.659,1.415-1.435,2.131-2.1" fill="#8e6b49"/>
    <path id="Path_763" data-name="Path 763" d="M265.7,426.982a58.752,58.752,0,0,1-30.9-12.908c-1.025-.8-1.649-3.59-1.039-4.6s3.223-1.69,4.572-1.271c9.166,2.848,18.206,6.1,27.339,9.054,3.1,1,5.468,2.79,4.343,5.981-.649,1.841-3.349,2.96-4.311,3.742" fill="#8e6b49"/>
    <path id="Path_764" data-name="Path 764" d="M301.192,37.581C296.177,27,291.052,16.479,286.268,5.8c-.7-1.559.229-3.848.4-5.8,1.823.929,4.435,1.377,5.342,2.865,5.746,9.426,11.114,19.082,16.606,28.662l-7.428,6.054" fill="#8e6b49"/>
    <path id="Path_765" data-name="Path 765" d="M606.694,2.878c.3-.378.928-1.973,1.836-2.149a4.526,4.526,0,0,1,3.709,1.212c6.142,7.408,12.213,14.882,18,22.568.942,1.253,1.175,4.487.313,5.3a6.514,6.514,0,0,1-5.659,1.049c-7.935-2.949-18.234-18.62-18.2-27.981" fill="#8e6a47"/>
    <path id="Path_766" data-name="Path 766" d="M63.462,81.417c13.323,4.061,25.294,8.969,35.858,16.746,1.047.771.938,3.113,1.365,4.726-1.713.286-3.794,1.348-5.082.737C84.5,98.36,73.508,92.842,62.571,87.232c-1.025-.526-2.26-2.491-1.978-3.284.419-1.181,2.1-1.913,2.869-2.531" fill="#8f6b4a"/>
    <path id="Path_767" data-name="Path 767" d="M813.09,362.445c1.995,1.534,5.028,2.688,5.757,4.684,1.29,3.537-2.189,4.533-4.849,5.6-6.007,2.4-11.9,5.129-18.038,7.123-2.1.683-5.694.451-7-.908-2.334-2.421-.645-5.168,1.9-7.118a45.046,45.046,0,0,1,22.235-9.376" fill="#8e6b47"/>
    <path id="Path_768" data-name="Path 768" d="M561.016,591.067c-1.674-1.237-3.532-1.922-3.719-2.92-.242-1.286.478-3.706,1.435-4.115,9.424-4.03,18.942-7.854,28.561-11.389,1.045-.384,3.647,1.092,4.154,2.288s-.294,4.136-1.267,4.548c-9.6,4.061-19.357,7.754-29.164,11.588" fill="#8e6b47"/>
    <path id="Path_769" data-name="Path 769" d="M607.17,350.748a21.182,21.182,0,0,1,3.351,1.1c6.834,3.783,13.721,7.485,20.371,11.573,1.271.782,1.565,3.154,2.31,4.793-1.734.369-3.916,1.6-5.128.966-7.495-3.907-14.817-8.157-22.063-12.515a4.222,4.222,0,0,1-1.334-3.618c.178-.959,1.745-1.661,2.493-2.3" fill="#8e6b49"/>
    <path id="Path_770" data-name="Path 770" d="M77.8,388.678a5.6,5.6,0,0,1-5.257-7.292c1.588-5.091,9.655-10.456,15.008-9.6a4.545,4.545,0,0,1,3.021,3c.67,5.655-7.144,13.927-12.772,13.891" fill="#8f6b4a"/>
    <path id="Path_771" data-name="Path 771" d="M321.259,419.529c-2.367-5.816-4.912-11.57-6.976-17.491-.511-1.465.536-3.473.868-5.231,1.671.667,4.088.851,4.886,2.084,3.679,5.683,6.906,11.659,10.3,17.53l-9.073,3.108" fill="#8e6b49"/>
    <path id="Path_772" data-name="Path 772" d="M740,387.63c-1.68-1.256-3.664-2.256-4.982-3.817-3.348-3.965-7.135-3.494-11.676-2.551-3.424.711-7.232-.1-10.819-.6-3.163-.437-6.257-1.376-9.381-2.094q.045-2.511.088-5.022a5.374,5.374,0,0,1,1.488,0c8.451,2.429,16.825,4.42,25.822,2.31,2.138-.5,5,2.069,7.9,3.4.245-.841.536-1.838.826-2.836L740,387.63" fill="#171717"/>
    <path id="Path_773" data-name="Path 773" d="M553.982,36.7c1.264,2.586,2.936,4.372,2.586,5.565a170.987,170.987,0,0,1-6.306,17.756c-.455,1.091-2.809,1.389-4.287,2.053-.535-1.4-1.822-3.034-1.479-4.174,1.716-5.7,3.781-11.3,5.914-16.858.465-1.213,1.708-2.127,3.572-4.342" fill="#8f6b4a"/>
    <path id="Path_774" data-name="Path 774" d="M321.259,419.529l9.073-3.108q2.852,6.113,5.7,12.226l-5.762,6.916-2.175-3.448q.639-3.9,1.28-7.8l-5.754-.691-2.364-4.1" fill="#8e6b49"/>
    <path id="Path_775" data-name="Path 775" d="M657.188,76.587l-.069-1.956c-.023-.42-.046-.842-.069-1.263l.015-3.764,5.988-1.017q.552,3.038,1.106,6.074a1.2,1.2,0,0,0,.064.549q.3,1.226.607,2.451c-2.071,3.25,1.41,8.322-4.1,11.283-.726-3.056-1.279-5.672-1.985-8.246-.386-1.407-1.031-2.743-1.559-4.111" fill="#8e6944"/>
    <path id="Path_776" data-name="Path 776" d="M657.188,76.587c.528,1.368,1.173,2.7,1.559,4.111.706,2.574,1.259,5.19,1.985,8.246,5.508-2.961,2.027-8.033,4.1-11.283.424,2.942,1.462,5.975,1.044,8.792-.251,1.7-2.764,3.064-4.26,4.579-1.359-1.36-3.572-2.541-3.9-4.115-.7-3.335-.41-6.874-.526-10.33" fill="#8b6e51"/>
    <path id="Path_777" data-name="Path 777" d="M310.313,35.485a13.654,13.654,0,0,1,1.162,2.1c.9,2.6,2.568,5.649-1.273,7.1-3.465,1.308-5.572-.655-6.44-4.051q3.277-2.574,6.551-5.148" fill="#8f6b4a"/>
    <path id="Path_778" data-name="Path 778" d="M330.272,435.563l5.763-6.916c.634,1.34,1.295,2.668,1.9,4.023,1.341,3.01,1.026,5.74-2.323,6.9-3.309,1.151-4.856-.936-5.339-4.012" fill="#8b6e51"/>
    <path id="Path_779" data-name="Path 779" d="M310.313,35.485q-3.274,2.574-6.551,5.148-1.287-1.525-2.571-3.052,3.714-3.026,7.428-6.053.849,1.979,1.694,3.957" fill="#ab8a69"/>
    <path id="Path_780" data-name="Path 780" d="M323.623,423.625l5.753.691q-.639,3.9-1.279,7.8-2.238-4.243-4.474-8.49" fill="#8e6b49"/>
    <path id="Path_781" data-name="Path 781" d="M663.053,68.587,657.066,69.6q1.329-2.31,2.659-4.619l3.328,3.6" fill="#8b6e51"/>
    <path id="Path_782" data-name="Path 782" d="M742.6,421.578q-.138-1.111-.277-2.223.138,1.111.277,2.223" fill="#424242"/>
    <path id="Path_783" data-name="Path 783" d="M664.224,75.21a1.209,1.209,0,0,1-.065-.549l.225.27Z" fill="#8b6e51"/>
    <path id="Path_784" data-name="Path 784" d="M657.05,73.368l.069,1.263a5.677,5.677,0,0,1-.274-.856c-.02-.121.131-.27.205-.407" fill="#8b6e51"/>
    <path id="Path_785" data-name="Path 785" d="M701.433,503.621c.025-.364.049-.728.074-1.092-.025.364-.049.728-.074,1.092" fill="#424242"/>
    <path id="Path_786" data-name="Path 786" d="M702.334,438.628q.068-18.573.135-37.145c3.914.36,8.124-.079,11.684,1.239,8.363,3.1,13.192,11.718,11.874,19.586-1.53,9.124-9.1,15.667-18.735,16.167-1.651.085-3.3.1-4.958.153" fill="#171717"/>
    <path id="Path_787" data-name="Path 787" d="M702.581,391.609l.438-12.259-.438,12.259" fill="#434343"/>
    <path id="Path_788" data-name="Path 788" d="M378,571.754c-2.746-7.752.816-13.033,3.508-18.243,3.553-6.878,7.741-13.432,11.8-20.041a3.327,3.327,0,0,1,2.73-1.286A3.121,3.121,0,0,1,398,534.331c.262,1.594.473,3.536-.2,4.889-4.783,9.689-9.7,19.316-14.83,28.824-.79,1.464-2.9,2.216-4.972,3.71" fill="#8f663a"/>
  </g>
</svg>
